<svg width="32" height="32" viewBox="0 0 32 32" fill="none" xmlns="http://www.w3.org/2000/svg">
  <defs>
    <linearGradient id="gradient" x1="0%" y1="0%" x2="100%" y2="100%">
      <stop offset="0%" style="stop-color:#059669;stop-opacity:1" />
      <stop offset="100%" style="stop-color:#047857;stop-opacity:1" />
    </linearGradient>
  </defs>
  <rect width="32" height="32" rx="16" fill="url(#gradient)"/>
  <path d="M8 12C8 10.8954 8.89543 10 10 10H14C14.5523 10 15 10.4477 15 11C15 11.5523 14.5523 12 14 12H10V14H14C15.1046 14 16 14.8954 16 16V20C16 21.1046 15.1046 22 14 22H10C8.89543 22 8 21.1046 8 20V12Z" fill="white"/>
  <path d="M18 11C18 10.4477 18.4477 10 19 10H23C23.5523 10 24 10.4477 24 11C24 11.5523 23.5523 12 23 12H20V14H22C22.5523 14 23 14.4477 23 15C23 15.5523 22.5523 16 22 16H20V20H23C23.5523 20 24 20.4477 24 21C24 21.5523 23.5523 22 23 22H19C18.4477 22 18 21.5523 18 21V11Z" fill="white"/>
  <path d="M10 20V18H14V20H10Z" fill="white"/>
</svg>