<svg width="32" height="32" viewBox="0 0 32 32" fill="none" xmlns="http://www.w3.org/2000/svg">
  <defs>
    <linearGradient id="gradient" x1="0%" y1="0%" x2="100%" y2="100%">
      <stop offset="0%" style="stop-color:#059669;stop-opacity:1" />
      <stop offset="100%" style="stop-color:#047857;stop-opacity:1" />
    </linearGradient>
  </defs>
  <rect width="32" height="32" rx="8" fill="url(#gradient)"/>
  <!-- Chef Hat Icon -->
  <path d="M16 8C14.5 8 13.2 8.8 12.5 10C11.8 9.6 11 9.5 10.2 9.8C9.4 10.1 8.8 10.7 8.5 11.5C8.2 12.3 8.3 13.1 8.7 13.8C8.3 14.5 8.2 15.3 8.5 16.1C8.8 16.9 9.4 17.5 10.2 17.8C11 18.1 11.8 18 12.5 17.6C13.2 18.8 14.5 19.6 16 19.6C17.5 19.6 18.8 18.8 19.5 17.6C20.2 18 21 18.1 21.8 17.8C22.6 17.5 23.2 16.9 23.5 16.1C23.8 15.3 23.7 14.5 23.3 13.8C23.7 13.1 23.8 12.3 23.5 11.5C23.2 10.7 22.6 10.1 21.8 9.8C21 9.5 20.2 9.6 19.5 10C18.8 8.8 17.5 8 16 8Z" fill="white" opacity="0.9"/>
  <!-- Chef Hat Band -->
  <rect x="10" y="20" width="12" height="3" rx="1.5" fill="white"/>
</svg>